<?xml version="1.0" encoding="utf-8"?>
<!-- Generator: Adobe Illustrator 27.7.0, SVG Export Plug-In . SVG Version: 6.00 Build 0)  -->
<svg version="1.1" id="Layer_1" xmlns="http://www.w3.org/2000/svg" xmlns:xlink="http://www.w3.org/1999/xlink" x="0px" y="0px"
	 viewBox="0 0 500 500" style="enable-background:new 0 0 500 500;" xml:space="preserve">
<style type="text/css">
	.st0{fill:#312A27;stroke:#201600;stroke-miterlimit:10;}
	.st1{fill:#FFFFFF;}
</style>
<rect class="st0" width="500" height="500"/>
<polygon class="st1" points="149.3,308.1 148.6,308.1 132.6,141.9 95.5,141.9 79.4,308.1 78.8,308.1 63.7,141.9 30.9,141.9 
	52.9,358.1 98,358.1 113.4,212.3 114,212.3 129.5,358.1 171.8,358.1 193.7,141.9 164.4,141.9 "/>
<path class="st1" d="M292.2,237c-11.1-9.7-18.8-17.9-23.2-24.7c-4.1-6.8-6.2-14.1-6.2-21.9c0-13.8,5.7-20.7,17-20.7
	c5.6,0,9.8,1.8,12.7,5.3c2.9,3.3,4.3,8.7,4.3,16.1v11.1h32.1v-9c0-17.5-4.2-30.9-12.7-40.2c-8.2-9.5-20.5-14.2-36.8-14.2
	c-16.5,0-29,4.7-37.7,14.2c-8.6,9.3-13,22.4-13,39.5c0,12.6,2.8,23.9,8.3,34c5.6,9.9,15.3,21,29.3,33.4c11.1,9.7,18.7,18,22.9,25
	c4.1,6.8,6.2,14.7,6.2,23.8c0,7.6-1.5,13.2-4.6,16.7c-2.9,3.3-7.2,4.9-13,4.9c-11.7,0-17.6-7-17.6-21v-14.8h-32.1v12.4
	c0,17.5,4.2,31,12.7,40.5c8.4,9.3,20.9,13.9,37.4,13.9c16.7,0,29.3-4.7,38-14.2c8.9-9.5,13.3-23.1,13.3-40.8c0-13.6-2.7-25.4-8-35.5
	C316.2,260.6,306.4,249.4,292.2,237z"/>
<polygon class="st1" points="364,172.8 399.6,172.8 399.6,358.1 433.5,358.1 433.5,172.8 469.1,172.8 469.1,141.9 364,141.9 "/>
</svg>
