<svg width="244" height="24" viewBox="0 0 244 24" fill="none" xmlns="http://www.w3.org/2000/svg">
<path d="M0.48 0.599998H3.872L5.44 17.816H5.504L7.168 0.599998H11.008L12.672 17.816H12.736L14.304 0.599998H17.344L15.072 23H10.688L9.088 7.896H9.024L7.424 23H2.752L0.48 0.599998ZM23.1245 0.599998H26.6445V23H23.1245V0.599998ZM33.2808 0.599998H36.8008V19.8H42.5928V23H33.2808V0.599998ZM48.2808 0.599998H53.6568C55.4061 0.599998 56.7181 1.06933 57.5928 2.008C58.4674 2.94667 58.9048 4.32267 58.9048 6.136V17.464C58.9048 19.2773 58.4674 20.6533 57.5928 21.592C56.7181 22.5307 55.4061 23 53.6568 23H48.2808V0.599998ZM53.5928 19.8C54.1688 19.8 54.6061 19.6293 54.9048 19.288C55.2248 18.9467 55.3848 18.392 55.3848 17.624V5.976C55.3848 5.208 55.2248 4.65333 54.9048 4.312C54.6061 3.97067 54.1688 3.8 53.5928 3.8H51.8008V19.8H53.5928ZM78.9818 23.32C77.2751 23.32 75.9844 22.84 75.1098 21.88C74.2351 20.8987 73.7978 19.5013 73.7978 17.688V16.408H77.1258V17.944C77.1258 19.3947 77.7338 20.12 78.9498 20.12C79.5471 20.12 79.9951 19.9493 80.2938 19.608C80.6138 19.2453 80.7738 18.6693 80.7738 17.88C80.7738 16.9413 80.5604 16.12 80.1338 15.416C79.7071 14.6907 78.9178 13.8267 77.7658 12.824C76.3151 11.544 75.3018 10.392 74.7258 9.368C74.1498 8.32267 73.8618 7.14933 73.8618 5.848C73.8618 4.07733 74.3098 2.712 75.2057 1.752C76.1018 0.770665 77.4031 0.279999 79.1098 0.279999C80.7951 0.279999 82.0644 0.770665 82.9178 1.752C83.7924 2.712 84.2298 4.09867 84.2298 5.912V6.84H80.9018V5.688C80.9018 4.92 80.7524 4.36533 80.4538 4.024C80.1551 3.66133 79.7178 3.48 79.1418 3.48C77.9684 3.48 77.3818 4.19467 77.3818 5.624C77.3818 6.43467 77.5951 7.192 78.0218 7.896C78.4698 8.6 79.2698 9.45333 80.4218 10.456C81.8938 11.736 82.9071 12.8987 83.4618 13.944C84.0164 14.9893 84.2938 16.216 84.2938 17.624C84.2938 19.4587 83.8351 20.8667 82.9178 21.848C82.0218 22.8293 80.7098 23.32 78.9818 23.32ZM92.9383 0.599998H97.7063L101.354 23H97.8343L97.1943 18.552V18.616H93.1943L92.5543 23H89.2903L92.9383 0.599998ZM96.7783 15.576L95.2103 4.504H95.1463L93.6102 15.576H96.7783ZM107.062 0.599998H116.374V3.8H110.582V10.04H115.126V13.24H110.582V23H107.062V0.599998ZM123.751 0.599998H128.519L132.167 23H128.647L128.007 18.552V18.616H124.007L123.367 23H120.103L123.751 0.599998ZM127.591 15.576L126.023 4.504H125.959L124.423 15.576H127.591ZM137.875 0.599998H143.091C144.904 0.599998 146.227 1.02667 147.059 1.88C147.891 2.712 148.307 4.00267 148.307 5.752V7.128C148.307 9.45333 147.539 10.9253 146.003 11.544V11.608C146.856 11.864 147.453 12.3867 147.795 13.176C148.157 13.9653 148.339 15.0213 148.339 16.344V20.28C148.339 20.92 148.36 21.4427 148.403 21.848C148.445 22.232 148.552 22.616 148.723 23H145.139C145.011 22.6373 144.925 22.296 144.883 21.976C144.84 21.656 144.819 21.08 144.819 20.248V16.152C144.819 15.128 144.648 14.4133 144.307 14.008C143.987 13.6027 143.421 13.4 142.611 13.4H141.395V23H137.875V0.599998ZM142.675 10.2C143.379 10.2 143.901 10.0187 144.243 9.656C144.605 9.29333 144.786 8.68533 144.786 7.832V6.104C144.786 5.29333 144.637 4.70667 144.339 4.344C144.061 3.98133 143.613 3.8 142.995 3.8H141.395V10.2H142.675ZM154.781 0.599998H158.301V23H154.781V0.599998ZM176.814 3.8H173.134V0.599998H184.014V3.8H180.334V23H176.814V3.8ZM189.718 0.599998H194.934C196.748 0.599998 198.07 1.02667 198.902 1.88C199.734 2.712 200.15 4.00267 200.15 5.752V7.128C200.15 9.45333 199.382 10.9253 197.846 11.544V11.608C198.7 11.864 199.297 12.3867 199.638 13.176C200.001 13.9653 200.182 15.0213 200.182 16.344V20.28C200.182 20.92 200.204 21.4427 200.246 21.848C200.289 22.232 200.396 22.616 200.566 23H196.982C196.854 22.6373 196.769 22.296 196.726 21.976C196.684 21.656 196.662 21.08 196.662 20.248V16.152C196.662 15.128 196.492 14.4133 196.15 14.008C195.83 13.6027 195.265 13.4 194.454 13.4H193.238V23H189.718V0.599998ZM194.518 10.2C195.222 10.2 195.745 10.0187 196.086 9.656C196.449 9.29333 196.63 8.68533 196.63 7.832V6.104C196.63 5.29333 196.481 4.70667 196.182 4.344C195.905 3.98133 195.457 3.8 194.838 3.8H193.238V10.2H194.518ZM206.625 0.599998H210.145V23H206.625V0.599998ZM216.781 0.599998H221.965C223.714 0.599998 225.026 1.06933 225.901 2.008C226.775 2.94667 227.213 4.32267 227.213 6.136V8.344C227.213 10.1573 226.775 11.5333 225.901 12.472C225.026 13.4107 223.714 13.88 221.965 13.88H220.301V23H216.781V0.599998ZM221.965 10.68C222.541 10.68 222.967 10.52 223.245 10.2C223.543 9.88 223.693 9.336 223.693 8.568V5.912C223.693 5.144 223.543 4.6 223.245 4.28C222.967 3.96 222.541 3.8 221.965 3.8H220.301V10.68H221.965ZM237.826 23.32C236.119 23.32 234.828 22.84 233.954 21.88C233.079 20.8987 232.642 19.5013 232.642 17.688V16.408H235.97V17.944C235.97 19.3947 236.578 20.12 237.794 20.12C238.391 20.12 238.839 19.9493 239.138 19.608C239.458 19.2453 239.618 18.6693 239.618 17.88C239.618 16.9413 239.404 16.12 238.978 15.416C238.551 14.6907 237.762 13.8267 236.61 12.824C235.159 11.544 234.146 10.392 233.57 9.368C232.994 8.32267 232.706 7.14933 232.706 5.848C232.706 4.07733 233.154 2.712 234.049 1.752C234.946 0.770665 236.247 0.279999 237.954 0.279999C239.639 0.279999 240.908 0.770665 241.762 1.752C242.636 2.712 243.074 4.09867 243.074 5.912V6.84H239.746V5.688C239.746 4.92 239.596 4.36533 239.298 4.024C238.999 3.66133 238.562 3.48 237.986 3.48C236.812 3.48 236.226 4.19467 236.226 5.624C236.226 6.43467 236.439 7.192 236.866 7.896C237.314 8.6 238.114 9.45333 239.266 10.456C240.738 11.736 241.751 12.8987 242.306 13.944C242.86 14.9893 243.138 16.216 243.138 17.624C243.138 19.4587 242.679 20.8667 241.762 21.848C240.866 22.8293 239.554 23.32 237.826 23.32Z" fill="#000000"/>
</svg>
