<svg width="130" height="19" viewBox="0 0 130 19" fill="none" xmlns="http://www.w3.org/2000/svg">
<path d="M0.36 1.2H2.904L4.08 14.112H4.128L5.376 1.2H8.256L9.504 14.112H9.552L10.728 1.2H13.008L11.304 18H8.016L6.816 6.672H6.768L5.568 18H2.064L0.36 1.2ZM14.0507 1.2H16.6907V18H14.0507V1.2ZM18.3752 1.2H21.0152V15.6H25.3592V18H18.3752V1.2ZM26.3325 1.2H30.3645C31.6765 1.2 32.6605 1.552 33.3165 2.256C33.9725 2.96 34.3005 3.992 34.3005 5.352V13.848C34.3005 15.208 33.9725 16.24 33.3165 16.944C32.6605 17.648 31.6765 18 30.3645 18H26.3325V1.2ZM30.3165 15.6C30.7485 15.6 31.0765 15.472 31.3005 15.216C31.5405 14.96 31.6605 14.544 31.6605 13.968V5.232C31.6605 4.656 31.5405 4.24 31.3005 3.984C31.0765 3.728 30.7485 3.6 30.3165 3.6H28.9725V15.6H30.3165ZM42.7729 18.24C41.4929 18.24 40.5249 17.88 39.8689 17.16C39.2129 16.424 38.8849 15.376 38.8849 14.016V13.056H41.3809V14.208C41.3809 15.296 41.8369 15.84 42.7489 15.84C43.1969 15.84 43.5329 15.712 43.7569 15.456C43.9969 15.184 44.1169 14.752 44.1169 14.16C44.1169 13.456 43.9569 12.84 43.6369 12.312C43.3169 11.768 42.7249 11.12 41.8609 10.368C40.7729 9.408 40.0129 8.544 39.5809 7.776C39.1489 6.992 38.9329 6.112 38.9329 5.136C38.9329 3.808 39.2689 2.784 39.9409 2.064C40.6129 1.328 41.5889 0.959999 42.8689 0.959999C44.1329 0.959999 45.0849 1.328 45.7249 2.064C46.3809 2.784 46.7089 3.824 46.7089 5.184V5.88H44.2129V5.016C44.2129 4.44 44.1009 4.024 43.8769 3.768C43.6529 3.496 43.3249 3.36 42.8929 3.36C42.0129 3.36 41.5729 3.896 41.5729 4.968C41.5729 5.576 41.7329 6.144 42.0529 6.672C42.3889 7.2 42.9889 7.84 43.8529 8.592C44.9569 9.552 45.7169 10.424 46.1329 11.208C46.5489 11.992 46.7569 12.912 46.7569 13.968C46.7569 15.344 46.4129 16.4 45.7249 17.136C45.0529 17.872 44.0689 18.24 42.7729 18.24ZM49.9476 1.2H53.5236L56.2596 18H53.6196L53.1396 14.664V14.712H50.1396L49.6596 18H47.2116L49.9476 1.2ZM52.8276 12.432L51.6516 4.128H51.6036L50.4516 12.432H52.8276ZM57.2477 1.2H64.2317V3.6H59.8877V8.28H63.2957V10.68H59.8877V18H57.2477V1.2ZM66.4716 1.2H70.0476L72.7836 18H70.1436L69.6636 14.664V14.712H66.6636L66.1836 18H63.7356L66.4716 1.2ZM69.3516 12.432L68.1756 4.128H68.1276L66.9756 12.432H69.3516ZM73.7717 1.2H77.6837C79.0437 1.2 80.0357 1.52 80.6597 2.16C81.2837 2.784 81.5957 3.752 81.5957 5.064V6.096C81.5957 7.84 81.0197 8.944 79.8677 9.408V9.456C80.5077 9.648 80.9557 10.04 81.2117 10.632C81.4837 11.224 81.6197 12.016 81.6197 13.008V15.96C81.6197 16.44 81.6357 16.832 81.6677 17.136C81.6997 17.424 81.7797 17.712 81.9077 18H79.2197C79.1237 17.728 79.0597 17.472 79.0277 17.232C78.9957 16.992 78.9797 16.56 78.9797 15.936V12.864C78.9797 12.096 78.8517 11.56 78.5957 11.256C78.3557 10.952 77.9317 10.8 77.3237 10.8H76.4117V18H73.7717V1.2ZM77.3717 8.4C77.8997 8.4 78.2917 8.264 78.5477 7.992C78.8197 7.72 78.9557 7.264 78.9557 6.624V5.328C78.9557 4.72 78.8437 4.28 78.6197 4.008C78.4117 3.736 78.0757 3.6 77.6117 3.6H76.4117V8.4H77.3717ZM83.1587 1.2H85.7987V18H83.1587V1.2ZM93.0983 3.6H90.3383V1.2H98.4983V3.6H95.7383V18H93.0983V3.6ZM99.4838 1.2H103.396C104.756 1.2 105.748 1.52 106.372 2.16C106.996 2.784 107.308 3.752 107.308 5.064V6.096C107.308 7.84 106.732 8.944 105.58 9.408V9.456C106.22 9.648 106.668 10.04 106.924 10.632C107.196 11.224 107.332 12.016 107.332 13.008V15.96C107.332 16.44 107.348 16.832 107.38 17.136C107.412 17.424 107.492 17.712 107.62 18H104.932C104.836 17.728 104.772 17.472 104.74 17.232C104.708 16.992 104.692 16.56 104.692 15.936V12.864C104.692 12.096 104.564 11.56 104.308 11.256C104.068 10.952 103.644 10.8 103.036 10.8H102.124V18H99.4838V1.2ZM103.084 8.4C103.612 8.4 104.004 8.264 104.26 7.992C104.532 7.72 104.668 7.264 104.668 6.624V5.328C104.668 4.72 104.556 4.28 104.332 4.008C104.124 3.736 103.788 3.6 103.324 3.6H102.124V8.4H103.084ZM108.871 1.2H111.511V18H108.871V1.2ZM113.195 1.2H117.083C118.395 1.2 119.379 1.552 120.035 2.256C120.691 2.96 121.019 3.992 121.019 5.352V7.008C121.019 8.368 120.691 9.4 120.035 10.104C119.379 10.808 118.395 11.16 117.083 11.16H115.835V18H113.195V1.2ZM117.083 8.76C117.515 8.76 117.835 8.64 118.043 8.4C118.267 8.16 118.379 7.752 118.379 7.176V5.184C118.379 4.608 118.267 4.2 118.043 3.96C117.835 3.72 117.515 3.6 117.083 3.6H115.835V8.76H117.083ZM125.686 18.24C124.406 18.24 123.438 17.88 122.782 17.16C122.126 16.424 121.798 15.376 121.798 14.016V13.056H124.294V14.208C124.294 15.296 124.75 15.84 125.662 15.84C126.11 15.84 126.446 15.712 126.67 15.456C126.91 15.184 127.03 14.752 127.03 14.16C127.03 13.456 126.87 12.84 126.55 12.312C126.23 11.768 125.638 11.12 124.774 10.368C123.686 9.408 122.926 8.544 122.494 7.776C122.062 6.992 121.846 6.112 121.846 5.136C121.846 3.808 122.182 2.784 122.854 2.064C123.526 1.328 124.502 0.959999 125.782 0.959999C127.046 0.959999 127.998 1.328 128.638 2.064C129.294 2.784 129.622 3.824 129.622 5.184V5.88H127.126V5.016C127.126 4.44 127.014 4.024 126.79 3.768C126.566 3.496 126.238 3.36 125.806 3.36C124.926 3.36 124.486 3.896 124.486 4.968C124.486 5.576 124.646 6.144 124.966 6.672C125.302 7.2 125.902 7.84 126.766 8.592C127.87 9.552 128.63 10.424 129.046 11.208C129.462 11.992 129.67 12.912 129.67 13.968C129.67 15.344 129.326 16.4 128.638 17.136C127.966 17.872 126.982 18.24 125.686 18.24Z" fill="#E1A932"/>
</svg>
